<svg id="SvgjsSvg1032" width="288" height="288" xmlns="http://www.w3.org/2000/svg" version="1.1" xmlns:xlink="http://www.w3.org/1999/xlink" xmlns:svgjs="http://svgjs.com/svgjs"><defs id="SvgjsDefs1033"></defs><g id="SvgjsG1034"><svg xmlns="http://www.w3.org/2000/svg" xmlns:svgjs="http://svgjs.com/svgjs" xmlns:xlink="http://www.w3.org/1999/xlink" width="288" height="288"><svg xmlns="http://www.w3.org/2000/svg" width="288" height="288" viewBox="0 0 45.78 52.56"><defs><linearGradient id="a" x1="31.73" x2="34.45" y1="39.76" y2="-.03" gradientUnits="userSpaceOnUse"><stop class="stopColor6ded08 svgShape stopColor419600" offset="0" stop-color="#52cc99"></stop><stop class="stopColorb4fe7b svgShape stopColor003e04" offset="1" stop-color="#009608" stop-opacity=".82"></stop></linearGradient><linearGradient id="b" x1="11.7" x2="11.83" y1="52.54" y2="12.69" gradientUnits="userSpaceOnUse"><stop class="stopColor060606 svgShape stopColor000000" offset="0" stop-color="#000000"></stop><stop class="stopColor585858 svgShape stopColor000000" offset="1" stop-opacity=".82" stop-color="#000000"></stop></linearGradient></defs><path fill="url(#a)" d="M43.7 5.07c2.65 4.1 2.27 8.85 1.55 13.45-1.72 8.75-6.92 15.52-13.52 21.24a135.1 135.1 0 0 0-7.36-1.71c4.4-4.68 8-9.87 9.55-16.2-2.8-.67-5.33-1.53-7.34-3.7-4.6-3.9-4.05-12.1.4-15.9 4.87-3.74 13.62-2.93 16.7 2.8z"></path><path fill="url(#b)" d="M15.2 13.55c4.94 1.24 7.6 6.63 7.2 11.42-1.08 5.12-5.47 8.98-10.66 9.58 1.4 6.4 5 11.63 9.43 16.32-2.32.47-4.6 1.02-6.86 1.7C7.67 47.28 2.5 40.5.7 32.07c-1.06-5.16-1.34-10.62 2.07-15 2.85-3.97 7.96-4.55 12.42-3.5z"></path></svg></svg></g></svg>